<?xml version="1.0" encoding="UTF-8"?>
<svg xmlns="http://www.w3.org/2000/svg" xmlns:xlink="http://www.w3.org/1999/xlink" width="50pt" height="50pt" viewBox="0 0 50 50" version="1.1">
<g id="surface1142345">
<path style=" stroke:none;fill-rule:nonzero;fill:rgb(100%,100%,100%);fill-opacity:1;" d="M 9 4 C 6.238281 4 4 6.238281 4 9 L 4 41 C 4 43.761719 6.238281 46 9 46 L 41 46 C 43.761719 46 46 43.761719 46 41 L 46 9 C 46 6.238281 43.761719 4 41 4 Z M 15 8 L 17.402344 8 L 19 12 L 20.597656 8 L 23 8 L 20 15 L 20 19 L 18 19 L 18 14.988281 C 17.398438 13.378906 15.410156 9.011719 15 8 Z M 25 11 C 25.890625 11 26.769531 11.269531 27.332031 11.949219 C 27.761719 12.4375 28 13.230469 28 14.269531 L 28 15.730469 C 28 16.769531 27.800781 17.492188 27.378906 17.980469 C 26.820312 18.652344 25.890625 19 25 19 C 24.109375 19 23.199219 18.652344 22.640625 17.980469 C 22.210938 17.492188 22 16.769531 22 15.730469 L 22 14.277344 C 22 13.238281 22.230469 12.4375 22.667969 11.949219 C 23.230469 11.269531 23.988281 11 25 11 Z M 29 11 L 31 11 L 31 17 C 31.050781 17.269531 31.339844 17.390625 31.609375 17.390625 C 32.019531 17.390625 32.539062 16.910156 33 16.378906 L 33 11 L 35 11 L 35 19 L 33 19 L 33 17.621094 C 32.191406 18.410156 31.5 19 30.589844 18.972656 C 29.929688 18.949219 29.46875 18.710938 29.238281 18.230469 C 29.101562 17.949219 29 17.5 29 16.839844 Z M 25 12.621094 C 24.863281 12.621094 24.730469 12.648438 24.613281 12.703125 C 24.492188 12.753906 24.382812 12.828125 24.292969 12.921875 C 24.203125 13.011719 24.128906 13.121094 24.078125 13.246094 C 24.027344 13.367188 24 13.5 24 13.640625 L 24 16.449219 C 24 16.730469 24.113281 16.984375 24.292969 17.167969 C 24.382812 17.261719 24.492188 17.335938 24.613281 17.386719 C 24.730469 17.441406 24.863281 17.472656 25 17.472656 C 25.136719 17.472656 25.269531 17.441406 25.386719 17.386719 C 25.746094 17.234375 26 16.871094 26 16.449219 L 26 13.640625 C 26 13.082031 25.550781 12.621094 25 12.621094 Z M 24.988281 22 L 25.007812 22 C 25.007812 22 31.71875 22 36.199219 22.320312 C 36.828125 22.390625 38.191406 22.398438 39.410156 23.648438 C 40.371094 24.589844 40.679688 26.75 40.679688 26.75 C 40.679688 26.75 41 28.28125 41 30.808594 L 41 33.179688 C 41 35.710938 40.679688 37.238281 40.679688 37.238281 C 40.679688 37.238281 40.371094 39.398438 39.410156 40.339844 C 38.191406 41.589844 36.828125 41.601562 36.199219 41.667969 C 31.71875 41.988281 25 42 25 42 C 25 42 16.679688 41.917969 14.121094 41.679688 C 13.410156 41.550781 11.808594 41.589844 10.589844 40.351562 C 9.628906 39.398438 9.320312 37.242188 9.320312 37.242188 C 9.320312 37.242188 9 35.710938 9 33.179688 L 9 30.808594 C 9 28.28125 9.320312 26.75 9.320312 26.75 C 9.320312 26.75 9.628906 24.589844 10.589844 23.652344 C 11.808594 22.402344 13.171875 22.390625 13.800781 22.320312 C 18.28125 22 24.992188 22 24.992188 22 Z M 12 26 L 12 27.980469 L 14 27.980469 L 14 38 L 16 38 L 16 27.980469 L 18 27.980469 L 18 26 Z M 25 26 L 25 38 L 27 38 L 27 36.75 C 27.632812 37.53125 28.453125 38 29.125 38 C 29.878906 38 30.53125 37.59375 30.785156 36.820312 C 30.902344 36.402344 30.992188 36.011719 31 35.125 L 31 32.375 C 31 31.386719 30.867188 30.644531 30.738281 30.222656 C 30.488281 29.441406 29.878906 29.003906 29.125 29 C 28.144531 28.992188 27.75 29.5 27 30.375 L 27 26 Z M 18 29 L 18 35.683594 C 18 36.40625 18.101562 36.890625 18.230469 37.207031 C 18.449219 37.722656 18.898438 38 19.539062 38 C 20.269531 38 21.210938 37.484375 22 36.636719 L 22 38 L 24 38 L 24 29 L 22 29 L 22 35.269531 C 21.558594 35.855469 20.917969 36.289062 20.519531 36.289062 C 20.257812 36.289062 20.050781 36.179688 20 35.894531 L 20 29 Z M 35.027344 29 C 34.019531 29 33.234375 29.316406 32.664062 29.917969 C 32.242188 30.359375 32 31.082031 32 32.019531 L 32 35.085938 C 32 36.015625 32.269531 36.667969 32.6875 37.105469 C 33.257812 37.703125 34.042969 38 35.074219 38 C 36.105469 38 36.917969 37.6875 37.464844 37.050781 C 37.703125 36.769531 37.859375 36.453125 37.925781 36.101562 C 37.945312 35.941406 38 35.511719 38 35 L 36 35 L 36 35.800781 C 36 36.261719 35.550781 36.640625 35 36.640625 C 34.449219 36.640625 34 36.261719 34 35.800781 L 34 34 L 38 34 L 38 31.980469 C 38 31.042969 37.769531 30.359375 37.355469 29.917969 C 36.804688 29.316406 36.019531 29 35.027344 29 Z M 35 30.449219 C 35.550781 30.449219 36 30.824219 36 31.289062 L 36 32.617188 L 34 32.617188 L 34 31.289062 C 34 30.824219 34.449219 30.449219 35 30.449219 Z M 28.222656 30.746094 C 28.765625 30.746094 29 31.082031 29 32.125 L 29 34.875 C 29 35.917969 28.765625 36.277344 28.222656 36.277344 C 27.910156 36.277344 27.316406 36.066406 27 35.75 L 27 31.375 C 27.316406 31.0625 27.910156 30.746094 28.222656 30.746094 Z M 28.222656 30.746094 "/>
</g>
</svg>
