
<svg version="1.1" preserveAspectRatio="none" id="Layer_1" xmlns="http://www.w3.org/2000/svg" xmlns:xlink="http://www.w3.org/1999/xlink" x="0px" y="0px"
	 viewBox="0 0 3849 69" style="enable-background:new 0 0 3849 69;" xml:space="preserve">
<style type="text/css">
	.st0{fill:#FFFFFF;}
	.st1{fill:#FFFFFF;stroke:#000000;stroke-miterlimit:10;}
	.st2{fill:#0099FF;}
</style>
<path class="st0" d="M0-69.2c6.6-3.2,17.1-8,30.1-12.4c93.7-31.5,133.9,20.6,238.2,14.3c28.2-1.7,48.8-6.8,86.4-16.5
	c59.6-15.4,103.7-35.3,132.9-47c191.8-76.6,368.9-48.2,452.2-34.8c178.7,28.7,241.3,97.3,469.8,112.1c144.3,9.3,136-1.2,469.8-61.3
	c156.6-28.2,313.2-38.7,469.8-22.3c156.6,17,313.2,60.9,391.5,83.7l78.3,22.2V69H0V-69.2z"/>
<path class="st1" d="M1430,171.5"/>
<path class="st2" d="M720,186.5"/>
</svg>
